HIERARCHY
ROOT hip
{
	OFFSET 0.000000 0.000000 0.000000 
	CHANNELS 6 Xposition Yposition Zposition Xrotation Zrotation Yrotation
	JOINT abdomen
	{
		OFFSET 0.000000 3.402643 0.000000 
		CHANNELS 3 Xrotation Zrotation Yrotation
		JOINT chest
		{
			OFFSET 0.000000 8.438565 -0.680529 
			CHANNELS 3 Xrotation Zrotation Yrotation
			JOINT neck
			{
				OFFSET 0.000000 10.207942 -0.272212 
				CHANNELS 3 Xrotation Zrotation Yrotation
				JOINT head
				{
					OFFSET 0.000000 3.130431 0.000000 
					CHANNELS 3 Xrotation Zrotation Yrotation
					End Site
					{
						OFFSET 0.000000 3.130435 0.000000 
					}
				}
			}
			JOINT lCollar
			{
				OFFSET 3.470700 6.669187 -0.816635 
				CHANNELS 3 Yrotation Zrotation Xrotation
				JOINT lShldr
				{
					OFFSET 3.198488 0.000000 0.000000 
					CHANNELS 3 Zrotation Yrotation Xrotation
					JOINT lForeArm
					{
						OFFSET 10.139888 0.000000 0.000000 
						CHANNELS 3 Yrotation Zrotation Xrotation
						JOINT lHand
						{
							OFFSET 8.370511 0.000000 0.000000 
							CHANNELS 3 Zrotation Yrotation Xrotation
							End Site
							{
								OFFSET 4.083176 0.000000 0.000000 
							}
						}
					}
				}
			}
			JOINT rCollar
			{
				OFFSET -3.470700 6.669187 -0.816635 
				CHANNELS 3 Yrotation Zrotation Xrotation
				JOINT rShldr
				{
					OFFSET -3.198488 0.000000 0.000000 
					CHANNELS 3 Zrotation Yrotation Xrotation
					JOINT rForeArm
					{
						OFFSET -10.139888 0.000000 0.000000 
						CHANNELS 3 Yrotation Zrotation Xrotation
						JOINT rHand
						{
							OFFSET -8.370511 0.000000 0.000000 
							CHANNELS 3 Zrotation Yrotation Xrotation
							End Site
							{
								OFFSET -4.083176 0.000000 0.000000 
							}
						}
					}
				}
			}
		}
	}
	JOINT lThigh
	{
		OFFSET 5.308129 -1.633274 1.361059 
		CHANNELS 3 Xrotation Zrotation Yrotation
		JOINT lShin
		{
			OFFSET -2.041588 -20.007561 0.000000 
			CHANNELS 3 Xrotation Zrotation Yrotation
			JOINT lFoot
			{
				OFFSET 0.000000 -19.190928 -1.224953 
				CHANNELS 3 Xrotation Yrotation Zrotation
				End Site
				{
					OFFSET 0.000000 -2.449906 4.627600 
				}
			}
		}
	}
	JOINT rThigh
	{
		OFFSET -5.308129 -1.633274 1.361059 
		CHANNELS 3 Xrotation Zrotation Yrotation
		JOINT rShin
		{
			OFFSET 2.041588 -20.007561 0.000000 
			CHANNELS 3 Xrotation Zrotation Yrotation
			JOINT rFoot
			{
				OFFSET 0.000000 -19.190928 -1.224953 
				CHANNELS 3 Xrotation Yrotation Zrotation
				End Site
				{
					OFFSET 0.000000 -2.449906 4.627600 
				}
			}
		}
	}
}
MOTION
Frames: 18
Frame Time: 0.033333
-0.458146 47.645664 -1.935151 154.990250 -176.826172 -3.818900 49.982903 -12.710983 -5.500284 -23.066406 6.113281 -1.512632 51.063168 8.107644 2.471410 -108.671875 9.013671 -7.294922 2.000000 -2.000000 0.000000 -100.273438 29.716793 -56.503906 -113.272301 1.128237 -2.849150 16.550251 50.542324 19.404232 -2.000000 2.000000 0.000000 86.923828 -42.070316 -44.147167 129.235306 -1.718588 -3.127550 -22.941925 -58.521984 40.106247 -61.356949 20.810572 8.755640 24.765039 -4.748575 -2.273832 -2.977426 -5.314136 -11.890684 -50.690956 -22.214916 -18.158051 42.020142 3.710832 3.445452 -7.871336 -5.449091 10.738074 
-0.875318 48.000172 -3.977973 154.843765 -178.115234 -4.053056 49.579651 -12.222357 -5.378846 -25.527344 6.884765 -1.033985 51.063168 8.107644 2.471410 -107.089844 9.267577 -5.966798 2.000000 -2.000000 0.000000 -105.869141 33.847656 -61.240234 -113.808258 1.179243 -2.813197 16.972250 51.663368 20.890654 -2.000000 2.000000 0.000000 89.892578 -44.697266 -43.242188 128.702499 -1.720118 -2.932076 -17.973948 -58.619007 38.437065 -59.326805 19.809660 8.062448 17.190434 -4.989424 -1.727328 -1.872631 -4.510884 -7.297291 -47.489216 -22.001015 -18.440063 40.972256 3.889607 3.289768 -8.802875 -4.725970 12.367680 
-1.015324 48.401955 -6.153739 154.853531 -179.228516 -4.043101 49.334301 -11.809336 -6.143367 -27.265625 8.154297 -0.488281 51.063168 8.107644 2.471410 -105.341797 9.824217 -4.500287 2.000000 -2.000000 0.000000 -110.908203 37.119141 -65.706993 -113.808258 1.179243 -2.813197 17.675236 52.291546 22.181576 -2.000000 2.000000 0.000000 92.841797 -46.845707 -42.790321 128.357971 -1.871438 -2.853139 -15.681199 -58.636593 37.907524 -60.307163 20.720314 5.701312 21.775223 -4.926004 -2.088340 -0.535093 -4.083574 -7.674914 -43.632225 -21.054317 -19.975889 39.201405 3.895893 3.266118 -10.350209 -2.952855 13.232282 
-0.730480 48.906147 -8.214043 154.677750 179.501953 -4.101477 48.759769 -11.346148 -8.352577 -28.271484 10.976564 0.664063 51.063168 8.107644 2.471410 -103.603516 10.312499 -2.136925 2.000000 -2.000000 0.000000 -114.472656 39.589844 -69.570313 -114.335579 1.198741 -2.814331 19.484840 52.776085 24.025623 -2.000000 2.000000 0.000000 93.222656 -47.607418 -42.048229 127.289261 -1.840652 -3.046604 -20.871996 -59.871532 41.881256 -60.506168 22.128187 2.816106 24.768328 -4.726429 -2.289652 0.305046 -3.687306 -8.932975 -40.311230 -19.774055 -20.929293 38.501377 3.928926 3.230566 -9.663781 -2.095151 14.445162 
-0.374523 49.410351 -9.984381 154.492203 178.251953 -4.355171 48.428673 -10.752294 -11.420390 -28.564451 14.326172 2.072729 51.063168 8.107644 2.471410 -101.816406 10.380858 0.253907 2.000000 -2.000000 0.000000 -111.904297 41.972656 -69.339172 -115.034836 1.040648 -3.010298 23.686083 52.743729 26.936161 -2.000000 2.000000 0.000000 93.017578 -47.773438 -41.843166 126.601379 -1.800934 -2.888164 -28.198132 -61.178543 46.266525 -59.922218 23.667982 0.024322 27.415289 -4.619353 -2.513695 0.513705 -3.658753 -9.908344 -38.151653 -18.639828 -21.471779 39.379295 3.876450 3.283371 -6.658517 0.433563 15.129306 
0.251496 49.772747 -11.736018 154.472672 177.294922 -4.452664 48.062756 -10.345907 -13.157712 -28.525391 16.083988 2.815206 51.063168 8.107644 2.471410 -100.898438 10.019530 0.939199 2.000000 -2.000000 0.000000 -102.138672 43.486328 -62.874138 -116.796410 1.286485 -2.819436 28.689657 52.625576 29.794664 -2.000000 2.000000 0.000000 94.511719 -47.558594 -43.691406 125.359779 -1.686523 -3.174587 -33.608692 -61.962307 50.505611 -58.710720 25.029432 -1.937682 28.476629 -4.671317 -2.623163 1.642238 -3.809202 -11.453758 -36.863991 -18.397305 -21.897766 41.311062 3.759137 3.397013 -0.647869 3.353125 15.341700 
0.532274 49.969692 -13.411308 154.453125 176.347656 -4.735706 47.746532 -10.222244 -13.717305 -28.710939 16.259768 2.753906 51.063168 8.107644 2.471410 -100.654297 9.355468 0.039062 2.000000 -2.000000 0.000000 -91.484375 42.529297 -55.354725 -118.374542 1.167388 -3.017650 32.430767 51.325020 31.524397 -2.000000 2.000000 0.000000 96.806641 -47.851563 -46.931068 123.961090 -1.691031 -3.096622 -29.940947 -62.494995 50.501831 -56.498043 25.964510 -3.076152 28.660994 -4.561579 -2.611954 4.205689 -4.216284 -12.252719 -37.292286 -19.362419 -22.568607 44.132050 3.563766 3.423070 11.391471 5.828513 13.527593 
0.767023 48.953426 -15.473394 154.609390 175.859375 -5.116482 47.426037 -9.988518 -14.151373 -28.886717 16.259766 2.717455 51.063168 8.107644 2.471410 -100.429688 8.574218 -0.917969 2.000000 -2.000000 0.000000 -83.857422 39.238281 -48.593750 -120.465836 1.700785 -2.423354 32.718407 50.063282 30.441603 -2.000000 2.000000 0.000000 98.642578 -48.212887 -50.517582 122.373085 -1.556966 -3.215720 -23.040791 -62.699642 49.255383 -54.622608 26.706301 -3.636814 30.411270 -4.482713 -2.736775 0.791516 -4.027829 -12.756691 -40.897781 -21.395638 -24.387625 49.365307 2.717010 3.640377 15.644345 4.096026 14.033210 
1.037176 48.126221 -17.649229 154.775391 175.517578 -5.428925 47.093151 -9.742632 -14.591448 -29.072266 16.093750 2.656250 51.063168 8.107644 2.471410 -99.873047 7.919921 -1.611329 2.000000 -2.000000 0.000000 -77.646484 34.687500 -43.876953 -123.286140 1.694115 -2.706250 31.868649 48.558968 28.800566 -2.000000 2.000000 0.000000 100.166016 -48.818356 -54.306641 121.675957 -1.506358 -3.076166 -18.535929 -62.949966 48.077717 -51.305908 27.694109 -2.549712 30.950333 -4.468574 -2.942240 -2.283206 -3.659600 -12.922206 -45.797710 -24.078003 -25.378019 55.890034 2.704745 4.000145 14.180465 -3.662450 17.926640 
1.305097 48.748592 -19.899471 155.136719 175.683594 -6.210203 46.770645 -9.503690 -15.013480 -29.082029 15.917970 2.649163 51.063168 8.107644 2.471410 -99.501953 7.353516 -2.313203 2.000000 -2.000000 0.000000 -72.910156 29.951176 -39.716797 -125.910835 1.962201 -2.301703 31.549389 46.681366 27.066437 -2.000000 2.000000 0.000000 101.455078 -49.482422 -57.519531 121.856163 -1.429899 -2.876181 -21.511642 -62.868061 51.182304 -46.808426 28.501175 -0.396350 29.712196 -4.610152 -2.710535 -4.411462 -3.747113 -12.940201 -48.706795 -25.072433 -26.685200 56.771595 2.636497 4.033312 11.322830 -9.434339 19.518860 
1.677221 49.363079 -22.211620 155.859390 176.464844 -7.030648 46.436375 -9.261748 -15.444895 -29.257813 15.566406 2.414730 51.063168 8.107644 2.471410 -98.798828 7.128905 -2.470703 2.000000 -2.000000 0.000000 -69.560547 25.507813 -36.870796 -128.562546 1.883185 -2.482885 30.271719 44.666805 24.764399 -2.000000 2.000000 0.000000 101.777344 -50.244141 -60.339539 122.559525 -1.458582 -2.887619 -26.984116 -63.119274 55.283585 -40.554901 28.934221 2.963206 26.006763 -4.677611 -2.439949 -4.905680 -4.391786 -13.378747 -48.241081 -23.992859 -27.484894 49.764503 3.310433 3.804771 8.641398 -9.875393 18.306326 
2.054553 49.906670 -24.567513 156.591797 177.578125 -8.085525 46.069630 -8.986935 -15.596672 -29.267580 15.224609 2.226563 51.063168 8.107644 2.471410 -97.890625 7.031250 -2.392578 2.000000 -2.000000 0.000000 -67.382813 22.636721 -34.287113 -130.833679 2.134848 -2.360664 29.246422 42.642078 22.155872 -2.000000 2.000000 0.000000 102.304688 -51.279293 -63.454884 123.605644 -1.563001 -2.942548 -32.402657 -63.418716 58.776058 -33.394394 28.931179 7.816232 21.595982 -4.824186 -2.075697 -5.571549 -5.629126 -13.767005 -46.667698 -21.725702 -29.279030 38.852440 3.905705 3.095881 4.880312 -8.240978 14.651639 
2.366249 50.395111 -26.952450 -22.509764 1.132813 170.908401 45.896759 -8.816492 -15.890503 -29.472658 14.697268 2.001954 51.063168 8.107644 2.471410 -96.845703 6.787108 -1.844549 2.000000 -2.000000 0.000000 -67.744141 22.607422 -32.173977 -133.117355 2.205928 -2.315917 28.450220 38.856411 18.136187 -2.000000 2.000000 0.000000 102.724609 -51.718754 -65.925636 124.666740 -1.773946 -2.847486 -33.862232 -62.842991 59.159828 -25.517653 27.744160 12.877378 15.944008 -5.096572 -1.617404 -5.458399 -6.419666 -14.106238 -44.286194 -19.041716 -30.314148 26.540157 4.555374 2.233493 1.915563 -5.076571 11.637059 
2.857389 50.781136 -28.754284 -21.455078 -0.175781 169.843719 45.530632 -8.641042 -15.886827 -29.482422 14.169923 1.650391 51.063168 8.107644 2.471410 -95.781250 6.542968 -1.298828 2.000000 -2.000000 0.000000 -70.644531 25.214842 -31.060291 -135.232574 2.408287 -2.201005 27.650774 34.407387 13.093833 -2.000000 2.000000 0.000000 104.580078 -51.611332 -69.958824 126.241951 -1.651309 -2.937875 -29.876593 -61.533722 54.276642 -20.114054 26.682068 15.423663 12.600866 -5.125947 -1.312655 -2.076178 -8.840962 -14.414384 -41.909691 -16.576691 -30.205351 16.313246 4.949429 1.396552 1.084565 -2.483287 9.381408 
3.378186 51.119900 -30.278984 -20.585938 -1.503906 169.286850 45.346344 -8.527523 -15.741686 -29.492186 13.642579 1.476913 51.063168 8.107644 2.471410 -94.882813 6.425781 -0.898438 2.000000 -2.000000 0.000000 -74.443359 28.486330 -32.114483 -135.408493 2.233373 -2.180997 26.369377 32.233013 9.870884 -2.000000 2.000000 0.000000 106.601563 -51.357422 -73.640442 128.181046 -1.902945 -2.815854 -22.289980 -59.542564 46.241543 -15.876876 25.724918 17.875301 11.521597 -5.162989 -1.274113 1.942853 -11.261521 -15.060545 -38.367813 -14.149021 -27.556927 7.136084 5.154024 0.606386 4.137362 -2.612670 7.567436 
4.724246 51.348358 -30.738035 -19.707031 -2.343750 169.032791 44.968193 -8.426489 -15.590743 -29.677736 13.115234 1.250001 51.063168 8.107644 2.471410 -93.828125 6.289062 -0.312500 2.000000 -2.000000 0.000000 -78.300781 31.660156 -34.746094 -134.171173 2.236877 -2.288386 23.050129 33.450241 7.974870 -2.000000 2.000000 0.000000 107.558594 -51.289066 -74.519341 129.762161 -1.953386 -2.789444 -17.936831 -57.738811 41.037308 -15.097407 25.818624 18.867540 14.537064 -5.146922 -1.466578 7.785727 -13.588456 -13.808916 -34.088261 -12.076891 -23.677561 -0.594350 5.224655 0.110330 9.259083 -5.103230 6.311306 
6.454721 50.552673 -30.432192 -18.837891 -3.017578 170.448715 44.761978 -8.396697 -15.303045 -29.687500 12.587892 1.086113 51.063168 8.107644 2.471410 -93.115234 6.279296 0.118256 2.000000 -2.000000 0.000000 -83.681641 35.009766 -39.584240 -131.898911 1.831169 -2.704442 18.907572 36.068718 6.817634 -2.000000 2.000000 0.000000 107.900391 -52.197266 -73.269440 130.819809 -1.820998 -2.879550 -17.023411 -56.998817 39.082024 -23.395802 27.152555 16.967270 26.879292 -4.649526 -2.651114 10.680070 -11.629647 -14.091361 -31.911573 -11.072425 -20.872103 -3.569263 5.246780 -0.139865 10.758054 -5.743181 4.300834 
7.238150 49.607300 -31.473532 161.855484 -176.494141 -6.611926 44.716965 -8.547117 -14.724592 -29.697266 12.060548 1.083985 51.063168 8.107644 2.471410 -92.412109 6.533202 0.136719 2.000000 -2.000000 0.000000 -89.775391 37.880859 -44.912106 -128.901031 2.064903 -2.385921 14.868266 39.233093 6.161233 -2.000000 2.000000 0.000000 108.046875 -53.603512 -70.624992 131.698120 -1.851374 -2.861754 -17.570601 -57.077229 37.833412 -37.001472 28.905682 12.778096 43.617897 -3.908848 -3.541687 11.617750 -6.218342 -15.919573 -35.025738 -14.723465 -19.965853 9.959282 5.106519 1.022993 5.770368 -7.003454 6.345235 
